<svg width="16" height="14" viewBox="0 0 16 14" fill="none" xmlns="http://www.w3.org/2000/svg">
<path d="M8.00004 13C12.4188 13 16 10.0906 16 6.5C16 2.90937 12.4188 0 8.00004 0C3.58129 0 3.66413e-05 2.90937 3.66413e-05 6.5C3.66413e-05 7.90937 0.553162 9.2125 1.49066 10.2781C1.43129 11.0437 1.13441 11.725 0.821912 12.2437C0.650037 12.5312 0.475037 12.7625 0.346912 12.9187C0.281287 12.9969 0.231287 13.0563 0.193787 13.0969C0.175037 13.1156 0.162537 13.1312 0.153162 13.1406L0.143787 13.15C3.6642e-05 13.2937 -0.0405884 13.5063 0.0375366 13.6938C0.115662 13.8813 0.296912 14.0031 0.500037 14.0031C1.39691 14.0031 2.30004 13.725 3.05004 13.4C3.76566 13.0875 4.37504 12.7156 4.74691 12.4438C5.74066 12.8031 6.84066 13.0031 8.00004 13.0031V13ZM7.00004 4C7.00004 3.725 7.22504 3.5 7.50004 3.5H8.50004C8.77504 3.5 9.00004 3.725 9.00004 4V5.5H10.5C10.775 5.5 11 5.725 11 6V7C11 7.275 10.775 7.5 10.5 7.5H9.00004V9C9.00004 9.275 8.77504 9.5 8.50004 9.5H7.50004C7.22504 9.5 7.00004 9.275 7.00004 9V7.5H5.50004C5.22504 7.5 5.00004 7.275 5.00004 7V6C5.00004 5.725 5.22504 5.5 5.50004 5.5H7.00004V4Z" fill="black"/>
</svg>
