<svg width="18" height="18" viewBox="0 0 18 18" fill="none" xmlns="http://www.w3.org/2000/svg">
<path d="M8.12422 1.45233L8.12379 1.45322L6.17213 5.46884L1.81525 6.11205L1.81468 6.11214C1.34717 6.18227 0.955821 6.50974 0.810653 6.96093C0.666691 7.40838 0.782742 7.904 1.11968 8.23709C1.11971 8.23712 1.11974 8.23715 1.11977 8.23718L4.28364 11.3676L3.5365 15.7928L3.53642 15.7933C3.45834 16.2617 3.65319 16.7379 4.04044 17.0157C4.42686 17.2928 4.93783 17.3278 5.35908 17.1055L5.36013 17.1049L9.25176 15.0272L13.1434 17.1049L13.1444 17.1055C13.5643 17.3271 14.0762 17.297 14.4644 17.0147C14.8495 16.7346 15.0454 16.2627 14.9671 15.7933L14.967 15.7926L14.2168 11.3676L17.3806 8.23718C17.3807 8.23715 17.3807 8.23712 17.3807 8.23709C17.7165 7.90515 17.8379 7.4092 17.6891 6.95906C17.541 6.51075 17.1546 6.18247 16.6857 6.11214L16.6851 6.11205L12.3251 5.46883L10.3739 1.45398C10.3738 1.45381 10.3737 1.45364 10.3736 1.45346C10.1658 1.0227 9.72793 0.75 9.24864 0.75C8.76793 0.75 8.33456 1.02387 8.12422 1.45233Z" fill="white" stroke="black" stroke-width="0.5"/>
</svg>
